<?xml version="1.0" encoding="utf-8"?>
<!-- Generator: Adobe Illustrator 16.0.0, SVG Export Plug-In . SVG Version: 6.00 Build 0)  -->
<!DOCTYPE svg PUBLIC "-//W3C//DTD SVG 1.1//EN" "http://www.w3.org/Graphics/SVG/1.1/DTD/svg11.dtd">
<svg version="1.1" id="Layer_1" xmlns="http://www.w3.org/2000/svg" xmlns:xlink="http://www.w3.org/1999/xlink" x="0px" y="0px"
	 width="1000px" height="1000px" viewBox="0 0 1000 1000" enable-background="new 0 0 1000 1000" xml:space="preserve">
<path fill="#1B322E" d="M911.504,504.193c0,221.195-179.309,400.504-400.504,400.504c-221.185,0-400.504-179.309-400.504-400.504
	c0-221.194,179.319-400.503,400.504-400.503C732.195,103.689,911.504,283,911.504,504.193z"/>
<g>
	<g>
		<path fill="#E7E1E6" d="M466.637,228.202v134.571h-19.326V228.815c0-16.296-21.241-15.684-21.241-0.613v134.571H406.42V228.659
			c0-15.985-21.866-15.049-21.866-0.613v134.728H365.54V229.271c0-16.931-22.724-16.341-22.724-0.612v180.586
			c0,25.809,19.471,43.03,41.838,43.03v328.155c0,46.572,63.48,46.572,63.48,0V452.275c22.98,0,40.68-20.819,40.68-40.258
			l0.012-183.204C488.826,212.674,466.637,213.287,466.637,228.202z"/>
		<path fill="#E7E1E6" d="M560.695,270.631v307.427h33.861v202.219c0,44.868,63.627,45.548,63.627,0V270.631
			C658.186,199.074,560.695,199.074,560.695,270.631z"/>
	</g>
</g>
</svg>
